<?xml version="1.0" standalone="no"?>
<!DOCTYPE svg PUBLIC "-//W3C//DTD SVG 20010904//EN"
 "http://www.w3.org/TR/2001/REC-SVG-20010904/DTD/svg10.dtd">
<svg version="1.0" xmlns="http://www.w3.org/2000/svg"
 width="276.000000pt" height="230.000000pt" viewBox="0 0 276.000000 230.000000"
 preserveAspectRatio="xMidYMid meet">
<metadata>
Created by potrace 1.16, written by Peter Selinger 2001-2019
</metadata>
<g transform="translate(0.000000,230.000000) scale(0.100000,-0.100000)"
fill="#000000" stroke="none">
<path d="M325 2193 c-31 -8 -83 -51 -100 -83 -8 -16 -15 -50 -15 -75 0 -157
171 -227 281 -116 120 120 2 315 -166 274z"/>
<path d="M950 2177 c-135 -71 -109 -267 40 -307 117 -31 231 83 200 200 -30
110 -141 160 -240 107z"/>
<path d="M1635 2193 c-35 -9 -87 -54 -101 -89 -70 -168 127 -317 260 -195 130
119 14 326 -159 284z"/>
<path d="M2177 1816 c-72 -26 -109 -79 -109 -156 0 -72 30 -119 99 -154 125
-63 273 78 222 211 -15 40 -48 73 -94 94 -47 22 -67 23 -118 5z"/>
<path d="M175 1793 c-14 -16 -34 -50 -44 -78 -37 -99 -46 -166 -46 -356 0
-172 2 -189 20 -209 13 -15 28 -20 47 -18 26 4 27 3 33 -56 7 -82 35 -516 35
-554 0 -18 10 -43 25 -61 25 -29 27 -30 123 -29 113 0 137 10 151 65 5 21 17
174 27 340 l18 301 30 -5 c23 -4 36 1 50 16 17 19 19 38 18 189 0 238 -32 393
-94 459 -21 22 -28 23 -194 23 l-173 0 -26 -27z m325 -293 l0 -130 -125 0
-125 0 0 130 0 130 125 0 125 0 0 -130z"/>
<path d="M834 1795 c-70 -71 -106 -266 -94 -523 6 -126 17 -147 73 -139 24 3
27 1 27 -27 0 -98 41 -619 50 -636 17 -32 39 -38 142 -38 96 0 98 0 123 30 14
16 25 37 25 46 0 9 9 152 20 317 11 165 20 303 20 307 0 4 7 5 15 2 28 -11 62
5 75 36 20 49 7 373 -19 472 -22 85 -42 129 -72 159 -17 17 -34 19 -189 19
-169 0 -171 0 -196 -25z m336 -295 l0 -130 -125 0 -125 0 0 130 0 130 125 0
125 0 0 -130z"/>
<path d="M1481 1785 c-61 -69 -96 -262 -89 -484 3 -111 7 -133 23 -151 13 -15
28 -20 47 -18 26 4 27 2 33 -46 3 -28 12 -163 20 -301 18 -303 19 -309 51
-334 20 -16 40 -19 121 -19 87 0 98 2 119 23 29 29 30 38 49 355 8 146 16 281
18 299 2 34 -2 38 -98 103 -112 76 -135 99 -135 134 0 18 -5 24 -23 24 -22 0
-25 9 -51 121 -15 66 -26 122 -24 123 3 3 233 56 242 56 2 0 8 -15 11 -32 11
-48 13 -49 41 -21 25 25 52 27 97 8 12 -5 17 -3 17 9 0 29 -41 126 -67 156
l-25 30 -173 0 -173 0 -31 -35z"/>
<path d="M1863 1610 c-24 -10 -38 -48 -29 -77 4 -10 53 -53 109 -96 l102 -77
37 42 c21 24 36 46 35 50 -3 8 -180 143 -206 158 -22 11 -19 11 -48 0z"/>
<path d="M2270 1469 l-125 -30 -45 -52 c-25 -29 -63 -71 -85 -95 l-40 -42
-122 81 c-100 67 -127 80 -148 75 -33 -8 -52 -48 -38 -78 15 -32 293 -218 325
-218 19 0 40 16 78 60 29 33 55 60 59 60 4 0 24 -66 45 -147 21 -82 40 -152
42 -158 2 -5 -50 -69 -115 -142 l-118 -132 -6 -107 c-4 -59 -7 -164 -7 -234 0
-113 2 -129 20 -148 38 -40 101 -41 138 -1 24 25 32 96 32 275 l0 134 86 95
c47 52 88 95 90 95 4 0 -5 -24 -35 -93 -12 -27 -21 -60 -21 -74 0 -29 185
-436 206 -453 7 -7 31 -14 53 -17 35 -5 44 -2 71 25 19 19 30 41 30 58 0 15
-37 106 -81 203 -45 97 -82 181 -82 186 0 6 32 84 71 174 40 90 72 175 72 188
0 33 -128 514 -141 530 -17 19 -68 15 -209 -18z"/>
<path d="M1837 1457 c5 -31 2 -36 -23 -44 -28 -9 -28 -10 63 -71 51 -34 95
-62 98 -62 3 0 5 24 5 53 l-1 52 -67 50 c-85 63 -82 63 -75 22z"/>
</g>
</svg>
