<?xml version="1.0" ?><!DOCTYPE svg  PUBLIC '-//W3C//DTD SVG 1.1//EN'  'http://www.w3.org/Graphics/SVG/1.1/DTD/svg11.dtd'><svg height="512px" style="enable-background:new 0 0 512 512;" version="1.1" viewBox="0 0 512 512" width="512px" xml:space="preserve" xmlns="http://www.w3.org/2000/svg" xmlns:xlink="http://www.w3.org/1999/xlink"><g id="_x37_48_x2C__Combination_x2C__data_x2C__database_x2C__electronic_x2C__inforamtion"><g><path d="M429.626,64.051c4.812,0,8.686,3.906,8.686,8.688    c0,4.812-3.874,8.718-8.686,8.718c-4.813,0-8.688-3.906-8.688-8.718C420.938,67.957,424.813,64.051,429.626,64.051     M454.219,64.051c4.812,0,8.717,3.906,8.717,8.688c0,4.812-3.905,8.718-8.717,8.718c-4.782,0-8.688-3.906-8.688-8.718    C445.53,67.957,449.437,64.051,454.219,64.051z M429.626,144.83c4.812,0,8.686,3.906,8.686,8.718c0,4.813-3.874,8.688-8.686,8.688    c-4.813,0-8.688-3.875-8.688-8.688C420.938,148.736,424.813,144.83,429.626,144.83z M454.219,144.83    c4.812,0,8.717,3.906,8.717,8.718c0,4.813-3.905,8.688-8.717,8.688c-4.782,0-8.688-3.875-8.688-8.688    C445.53,148.736,449.437,144.83,454.219,144.83z M429.626,225.641c4.812,0,8.686,3.906,8.686,8.688    c0,4.813-3.874,8.719-8.686,8.719c-4.813,0-8.688-3.906-8.688-8.719C420.938,229.547,424.813,225.641,429.626,225.641z     M454.219,225.641c4.812,0,8.717,3.906,8.717,8.688c0,4.813-3.905,8.719-8.717,8.719c-4.782,0-8.688-3.906-8.688-8.719    C445.53,229.547,449.437,225.641,454.219,225.641z M86.296,85.332c1.407-1.563,3.829-1.72,5.422-0.313    c1.577,1.406,1.718,3.844,0.312,5.406l-14.25,16.029l0,0l-0.062,0.064l0,0l-0.032,0.031l-0.032,0.029l0,0l-0.031,0.031    l-0.03,0.032v0.032l-0.032,0.031l-0.079,0.061l-0.077,0.063l-0.032,0.032l-0.031,0.031l0,0l-0.047,0.029l-0.03,0.032l0,0    l-0.047,0.031l-0.032,0.032l-0.296,0.217l0,0h-0.016l-0.063,0.031l0,0v0.032l0,0l-0.093,0.032l-0.063,0.031v0.029H76.64    l-0.077,0.031l-0.063,0.032h-0.016h-0.016l-0.061,0.032v0.031l-0.095,0.031l0,0l-0.078,0.029h-0.016l0,0l-0.093,0.032    l-0.063,0.031h-0.016l0,0l-0.093,0.032l-0.079,0.031h-0.093v0.029h-0.063h-0.032l-0.249,0.063h-0.032l-0.265,0.032h-0.016h-0.312    c-0.188,0-0.375,0-0.579-0.032l0,0h-0.016h-0.031l-0.03-0.031h-0.032h-0.016h-0.047h-0.031l0,0l-0.03-0.032h-0.047h-0.016h-0.031    h-0.032l-0.016-0.029h-0.014h-0.047h-0.032H73.75l-0.032-0.031h-0.03l-0.047-0.032h-0.047l0,0l0,0l-0.093-0.031l-0.25-0.124    l-0.078-0.032h-0.016l0,0l-0.063-0.032h-0.016L73,107.393l0,0l-0.016-0.029l-0.063-0.031h-0.016l-0.062-0.032h-0.016l-0.016-0.032    l-0.047-0.031H72.75l0,0l-0.061-0.061h-0.016l-0.14-0.096l0,0l-0.032-0.029l-0.047-0.031l0,0l-0.032-0.032l-0.045-0.031l0,0    l-0.032-0.032l-0.031-0.029l0,0l-0.032-0.031H72.25l-0.016-0.032l-0.03-0.031l-0.032-0.032h-0.016l-0.032-0.031l-0.062-0.061    L72,106.58l-0.047-0.029l-0.016-0.031h-0.016l-0.045-0.064H71.86l-0.047-0.092h-0.016L57.61,90.426    c-1.406-1.563-1.265-4,0.328-5.406c1.563-1.407,4-1.251,5.406,0.313l7.64,8.594V60.801c0-2.125,1.72-3.843,3.829-3.843h191.596    c2.125,0,3.845,1.718,3.845,3.843s-1.72,3.845-3.845,3.845H78.656v29.28L86.296,85.332z M398.938,352.139    c-1.407,1.562-3.813,1.718-5.406,0.313c-1.593-1.406-1.72-3.846-0.313-5.406l14.249-16.032l0,0l0.031-0.062h0.031l0.032-0.031    v-0.031l0.031-0.031l0.029-0.032l0,0l0.032-0.03l0.031-0.031l0.063-0.063l0.062-0.063l0.063-0.031l0.032-0.031v-0.031h0.031    l0.03-0.032l0,0l0.063-0.03v-0.031l0.313-0.219l0,0l0,0l0.063-0.031v-0.032h0.031l0,0l0.093-0.03l0.063-0.063l0,0l0,0l0.093-0.031    l0.063-0.032l0,0l0.03-0.03l0.063-0.031l0,0l0.063-0.031h0.03l0.063-0.031l0,0h0.032l0.093-0.032l0.063-0.03l0,0l0,0l0.094-0.031    l0.095-0.031l0.062-0.031h0.031h0.063h0.031l0.249-0.063l0,0l0.281-0.031l0,0l0.313-0.031c0.219,0,0.406,0.031,0.595,0.063l0,0    h0.031h0.03h0.031l0.031,0.03l0,0h0.032h0.031h0.029h0.032l0.031,0.032l0,0h0.031h0.063l0,0l0.03,0.031h0.031h0.031l0,0    l0.063,0.031h0.03h0.031l0.031,0.031h0.032l0,0l0.093,0.03l0.251,0.095l0.062,0.031l0.031,0.03l0,0l0.063,0.032l0,0l0.093,0.031    l0,0l0,0l0.063,0.063l0,0l0.093,0.03l0,0v0.032l0.063,0.031h0.031l0,0l0.062,0.031l0,0l0.156,0.125l0,0l0.031,0.031l0.031,0.031    l0,0l0.032,0.031l0.029,0.03h0.032l0.031,0.032h0.031v0.031l0.032,0.031h0.031v0.031l0.03,0.03h0.031l0.031,0.032l0.032,0.031    l0.062,0.063l0.063,0.063l0.032,0.063l0.031,0.031l0,0l0.062,0.062l0,0l0.063,0.063l0,0l14.188,15.969    c1.405,1.561,1.25,4-0.313,5.406c-1.593,1.405-4.001,1.249-5.406-0.313l-7.656-8.596v33.125c0,2.096-1.719,3.813-3.844,3.813    H218.817c-2.125,0-3.843-1.717-3.843-3.813c0-2.125,1.718-3.843,3.843-3.843h187.746v-29.282L398.938,352.139z M146.093,102.237    c-2.125,0-3.844-1.718-3.844-3.843c0-2.096,1.719-3.845,3.844-3.845h95.006c2.125,0,3.843,1.749,3.843,3.845v225.463h88.029    c2.125,0,3.844,1.719,3.844,3.844s-1.719,3.844-3.844,3.844h-91.872c-2.125,0-3.845-1.719-3.845-3.844V102.237H146.093z     M122.546,329.17c0-3.344-1.313-6.375-3.453-8.594l-0.188-0.188c-2.25-2.249-5.359-3.624-8.781-3.624    c-3.453,0-6.563,1.375-8.796,3.624c-2.266,2.251-3.641,5.345-3.641,8.782s1.407,6.562,3.641,8.813    c2.234,2.25,5.343,3.624,8.796,3.624c3.422,0,6.531-1.405,8.781-3.624C121.156,335.731,122.546,332.607,122.546,329.17z     M135.717,279.234v-57.5H84.5v57.5H135.717z M165.17,163.611H55.063v19.812H165.17V163.611z M51.61,438.635h117.012    c2.111,0,3.829,1.72,3.829,3.845s-1.718,3.844-3.829,3.844H51.61c-2.109,0-3.845-1.719-3.845-3.844S49.501,438.635,51.61,438.635z     M51.61,418.231h117.012c2.111,0,3.829,1.718,3.829,3.843s-1.718,3.843-3.829,3.843H51.61c-2.109,0-3.845-1.718-3.845-3.843    S49.501,418.231,51.61,418.231z M51.61,397.793h117.012c2.111,0,3.829,1.719,3.829,3.844s-1.718,3.845-3.829,3.845H51.61    c-2.109,0-3.845-1.72-3.845-3.845S49.501,397.793,51.61,397.793z M51.61,377.388h117.012c2.111,0,3.829,1.718,3.829,3.843    s-1.718,3.845-3.829,3.845H51.61c-2.109,0-3.845-1.72-3.845-3.845S49.501,377.388,51.61,377.388z M124.546,315.201    c3.515,3.625,5.671,8.563,5.671,13.969c0,5.563-2.25,10.594-5.875,14.218c-3.641,3.657-8.672,5.906-14.219,5.906    s-10.578-2.249-14.219-5.906C92.25,339.764,90,334.732,90,329.17c0-5.53,2.25-10.531,5.889-14.187    c3.673-3.657,8.704-5.907,14.234-5.907c5.547,0,10.578,2.25,14.219,5.875L124.546,315.201z M143.405,217.891v65.186    c0,2.125-1.718,3.846-3.843,3.846h-58.89c-2.125,0-3.845-1.721-3.845-3.846v-65.186c0-2.125,1.72-3.842,3.845-3.842h58.89    C141.687,214.049,143.405,215.766,143.405,217.891z M169.014,191.11H51.219c-2.125,0-3.843-1.718-3.843-3.843v-27.469    c0-2.125,1.718-3.844,3.843-3.844h117.795c2.109,0,3.843,1.719,3.843,3.844v27.469C172.856,189.393,171.123,191.11,169.014,191.11    z M194.224,465.323V133.8H26.001v331.523H194.224z M280.752,417.043c2.125,0,3.845,1.718,3.845,3.843v24.937    c0,2.125-1.72,3.845-3.845,3.845s-3.843-1.72-3.843-3.845v-24.937C276.909,418.761,278.627,417.043,280.752,417.043z     M317.283,417.043c2.095,0,3.844,1.718,3.844,3.843v24.937c0,2.125-1.749,3.845-3.844,3.845c-2.125,0-3.844-1.72-3.844-3.845    v-24.937C313.439,418.761,315.158,417.043,317.283,417.043z M357.627,420.886v24.937c0,2.125-1.719,3.845-3.844,3.845    s-3.844-1.72-3.844-3.845v-24.937c0-2.125,1.719-3.843,3.844-3.843S357.627,418.761,357.627,420.886z M459.498,420.886    c0-2.125,1.72-3.843,3.845-3.843s3.843,1.718,3.843,3.843v24.937c0,2.125-1.718,3.845-3.843,3.845s-3.845-1.72-3.845-3.845    V420.886z M422.968,445.822v-24.937c0-2.125,1.751-3.843,3.845-3.843c2.125,0,3.843,1.718,3.843,3.843v24.937    c0,2.125-1.718,3.845-3.843,3.845C424.719,449.667,422.968,447.947,422.968,445.822z M485.999,402.637H258.097v61.436h227.902    V402.637z M386.469,445.822v-24.937c0-2.125,1.721-3.843,3.846-3.843s3.842,1.718,3.842,3.843v24.937    c0,2.125-1.717,3.845-3.842,3.845S386.469,447.947,386.469,445.822z M473.468,46.677H305.564V98.8h80.092v28.687h-80.092v52.125    h80.124l-0.032,0.405v27.813l0.032,0.437h-80.124v52.123h80.092v29.874h-57.529c-2.125,0-3.843,1.75-3.843,3.846    c0,2.125,1.718,3.842,3.843,3.842h61.123l0.252,0.032l0.248-0.032h61.155c2.125,0,3.845-1.717,3.845-3.842    c0-2.096-1.72-3.846-3.845-3.846h-57.562V260.39h80.124v-52.123h-80.124v-0.437v-27.813v-0.405h80.124v-52.125h-80.124V98.8    h80.124V46.677z" style="fill-rule:evenodd;clip-rule:evenodd;"/></g></g><g id="Layer_1"/></svg>